<?xml version="1.0" encoding="UTF-8"?>
<!DOCTYPE svg PUBLIC "-//W3C//DTD SVG 1.1//EN" "http://www.w3.org/Graphics/SVG/1.1/DTD/svg11.dtd">
<svg xmlns="http://www.w3.org/2000/svg" version="1.1" width="512px" height="512px" style="shape-rendering:geometricPrecision; text-rendering:geometricPrecision; image-rendering:optimizeQuality; fill-rule:evenodd; clip-rule:evenodd" xmlns:xlink="http://www.w3.org/1999/xlink">
<g><path style="opacity:0.998" fill="#241f20" d="M -0.5,11.5 C 170.167,11.5 340.833,11.5 511.5,11.5C 511.5,71.5 511.5,131.5 511.5,191.5C 507.369,195.13 503.369,198.963 499.5,203C 495.514,203.499 491.514,203.666 487.5,203.5C 487.5,286.167 487.5,368.833 487.5,451.5C 495.5,451.5 503.5,451.5 511.5,451.5C 511.5,467.5 511.5,483.5 511.5,499.5C 340.833,499.5 170.167,499.5 -0.5,499.5C -0.5,483.5 -0.5,467.5 -0.5,451.5C 7.5,451.5 15.5,451.5 23.5,451.5C 23.5,368.833 23.5,286.167 23.5,203.5C 19.4862,203.666 15.4862,203.499 11.5,203C 7.63104,198.963 3.63104,195.13 -0.5,191.5C -0.5,131.5 -0.5,71.5 -0.5,11.5 Z"/></g>
<g><path style="opacity:1" fill="#747678" d="M 495.5,43.5 C 495.5,38.1667 495.5,32.8333 495.5,27.5C 335.5,27.5 175.5,27.5 15.5,27.5C 15.5,32.8333 15.5,38.1667 15.5,43.5C 14.5111,38.0247 14.1778,32.358 14.5,26.5C 175.167,26.5 335.833,26.5 496.5,26.5C 496.822,32.358 496.489,38.0247 495.5,43.5 Z"/></g>
<g><path style="opacity:1" fill="#7f8284" d="M 495.5,43.5 C 335.5,43.5 175.5,43.5 15.5,43.5C 15.5,38.1667 15.5,32.8333 15.5,27.5C 175.5,27.5 335.5,27.5 495.5,27.5C 495.5,32.8333 495.5,38.1667 495.5,43.5 Z"/></g>
<g><path style="opacity:1" fill="#f15a22" d="M 70.5,98.5 C 71.4872,93.6946 71.8205,88.6946 71.5,83.5C 52.5,83.5 33.5,83.5 14.5,83.5C 14.5,75.1667 14.5,66.8333 14.5,58.5C 38.8333,58.5 63.1667,58.5 87.5,58.5C 87.5,101.5 87.5,144.5 87.5,187.5C 64.1643,187.667 40.831,187.5 17.5,187C 16.6667,186.167 15.8333,185.333 15,184.5C 14.5,155.835 14.3334,127.169 14.5,98.5C 33.1667,98.5 51.8333,98.5 70.5,98.5 Z"/></g>
<g><path style="opacity:1" fill="#bf3624" d="M 167.5,59.5 C 146.167,59.5 124.833,59.5 103.5,59.5C 103.5,102.167 103.5,144.833 103.5,187.5C 102.501,144.67 102.168,101.67 102.5,58.5C 124.34,58.1693 146.006,58.5027 167.5,59.5 Z"/></g>
<g><path style="opacity:1" fill="#ee3d24" d="M 167.5,59.5 C 167.5,102.167 167.5,144.833 167.5,187.5C 146.167,187.5 124.833,187.5 103.5,187.5C 103.5,144.833 103.5,102.167 103.5,59.5C 124.833,59.5 146.167,59.5 167.5,59.5 Z"/></g>
<g><path style="opacity:1" fill="#f15b22" d="M 183.5,58.5 C 204.833,58.5 226.167,58.5 247.5,58.5C 247.5,101.5 247.5,144.5 247.5,187.5C 226.167,187.5 204.833,187.5 183.5,187.5C 183.5,144.5 183.5,101.5 183.5,58.5 Z"/></g>
<g><path style="opacity:1" fill="#ee3d24" d="M 327.5,58.5 C 327.5,101.5 327.5,144.5 327.5,187.5C 306.167,187.5 284.833,187.5 263.5,187.5C 263.5,144.5 263.5,101.5 263.5,58.5C 284.833,58.5 306.167,58.5 327.5,58.5 Z"/></g>
<g><path style="opacity:1" fill="#f25b22" d="M 343.5,59.5 C 364.833,59.5 386.167,59.5 407.5,59.5C 407.5,102.167 407.5,144.833 407.5,187.5C 386.167,187.5 364.833,187.5 343.5,187.5C 343.5,144.833 343.5,102.167 343.5,59.5 Z"/></g>
<g><path style="opacity:1" fill="#c14c21" d="M 343.5,59.5 C 364.994,58.5027 386.66,58.1693 408.5,58.5C 408.832,101.67 408.499,144.67 407.5,187.5C 407.5,144.833 407.5,102.167 407.5,59.5C 386.167,59.5 364.833,59.5 343.5,59.5 Z"/></g>
<g><path style="opacity:1" fill="#ee3d24" d="M 496.5,83.5 C 477.5,83.5 458.5,83.5 439.5,83.5C 439.179,88.6946 439.513,93.6946 440.5,98.5C 459.167,98.5 477.833,98.5 496.5,98.5C 496.667,127.169 496.5,155.835 496,184.5C 495.167,185.333 494.333,186.167 493.5,187C 470.169,187.5 446.836,187.667 423.5,187.5C 423.5,144.5 423.5,101.5 423.5,58.5C 447.833,58.5 472.167,58.5 496.5,58.5C 496.5,66.8333 496.5,75.1667 496.5,83.5 Z"/></g>
<g><path style="opacity:1" fill="#492a20" d="M 14.5,83.5 C 33.5,83.5 52.5,83.5 71.5,83.5C 71.8205,88.6946 71.4872,93.6946 70.5,98.5C 70.5,93.8333 70.5,89.1667 70.5,84.5C 51.6592,84.8302 32.9925,84.4969 14.5,83.5 Z"/></g>
<g><path style="opacity:1" fill="#482521" d="M 496.5,83.5 C 478.007,84.4969 459.341,84.8302 440.5,84.5C 440.5,89.1667 440.5,93.8333 440.5,98.5C 439.513,93.6946 439.179,88.6946 439.5,83.5C 458.5,83.5 477.5,83.5 496.5,83.5 Z"/></g>
<g><path style="opacity:1" fill="#fab499" d="M 31.5,170.5 C 30.5128,165.695 30.1795,160.695 30.5,155.5C 36.1667,155.5 41.8333,155.5 47.5,155.5C 47.5,160.833 47.5,166.167 47.5,171.5C 41.9738,171.821 36.6405,171.488 31.5,170.5 Z"/></g>
<g><path style="opacity:1" fill="#fefffe" d="M 31.5,170.5 C 31.5,165.833 31.5,161.167 31.5,156.5C 36.5,156.5 41.5,156.5 46.5,156.5C 46.5,161.167 46.5,165.833 46.5,170.5C 41.5,170.5 36.5,170.5 31.5,170.5 Z"/></g>
<g><path style="opacity:1" fill="#221f1f" d="M 127.5,156.5 C 132.5,156.5 137.5,156.5 142.5,156.5C 142.5,161.167 142.5,165.833 142.5,170.5C 137.5,170.5 132.5,170.5 127.5,170.5C 127.5,165.833 127.5,161.167 127.5,156.5 Z"/></g>
<g><path style="opacity:1" fill="#502521" d="M 127.5,156.5 C 132.64,155.512 137.974,155.179 143.5,155.5C 143.821,160.695 143.487,165.695 142.5,170.5C 142.5,165.833 142.5,161.167 142.5,156.5C 137.5,156.5 132.5,156.5 127.5,156.5 Z"/></g>
<g><path style="opacity:1" fill="#fefcfb" d="M 207.5,155.5 C 212.833,155.5 218.167,155.5 223.5,155.5C 223.5,160.5 223.5,165.5 223.5,170.5C 218.167,170.5 212.833,170.5 207.5,170.5C 207.5,165.5 207.5,160.5 207.5,155.5 Z"/></g>
<g><path style="opacity:1" fill="#271f20" d="M 287.5,155.5 C 292.833,155.5 298.167,155.5 303.5,155.5C 303.5,160.5 303.5,165.5 303.5,170.5C 298.167,170.5 292.833,170.5 287.5,170.5C 287.5,165.5 287.5,160.5 287.5,155.5 Z"/></g>
<g><path style="opacity:1" fill="#fcc9b6" d="M 383.5,156.5 C 378.5,156.5 373.5,156.5 368.5,156.5C 368.5,161.167 368.5,165.833 368.5,170.5C 373.5,170.5 378.5,170.5 383.5,170.5C 378.36,171.488 373.026,171.821 367.5,171.5C 367.5,166.167 367.5,160.833 367.5,155.5C 373.026,155.179 378.36,155.512 383.5,156.5 Z"/></g>
<g><path style="opacity:1" fill="#fefffe" d="M 383.5,156.5 C 383.5,161.167 383.5,165.833 383.5,170.5C 378.5,170.5 373.5,170.5 368.5,170.5C 368.5,165.833 368.5,161.167 368.5,156.5C 373.5,156.5 378.5,156.5 383.5,156.5 Z"/></g>
<g><path style="opacity:1" fill="#7f2d22" d="M 479.5,170.5 C 474.36,171.488 469.026,171.821 463.5,171.5C 463.5,166.167 463.5,160.833 463.5,155.5C 469.167,155.5 474.833,155.5 480.5,155.5C 480.821,160.695 480.487,165.695 479.5,170.5 Z"/></g>
<g><path style="opacity:1" fill="#221f1f" d="M 479.5,170.5 C 474.5,170.5 469.5,170.5 464.5,170.5C 464.5,165.833 464.5,161.167 464.5,156.5C 469.5,156.5 474.5,156.5 479.5,156.5C 479.5,161.167 479.5,165.833 479.5,170.5 Z"/></g>
<g><path style="opacity:1" fill="#7e3921" d="M 183.5,58.5 C 183.5,101.5 183.5,144.5 183.5,187.5C 204.833,187.5 226.167,187.5 247.5,187.5C 226.006,188.497 204.34,188.831 182.5,188.5C 182.168,144.997 182.501,101.663 183.5,58.5 Z"/></g>
<g><path style="opacity:1" fill="#7c2d22" d="M 327.5,58.5 C 328.499,101.663 328.832,144.997 328.5,188.5C 306.66,188.831 284.994,188.497 263.5,187.5C 284.833,187.5 306.167,187.5 327.5,187.5C 327.5,144.5 327.5,101.5 327.5,58.5 Z"/></g>
<g><path style="opacity:1" fill="#c2c6c8" d="M 471.5,203.5 C 471.5,286.167 471.5,368.833 471.5,451.5C 463.5,451.5 455.5,451.5 447.5,451.5C 447.5,393.167 447.5,334.833 447.5,276.5C 383.669,275.501 319.669,275.168 255.5,275.5C 255.5,334.167 255.5,392.833 255.5,451.5C 183.5,451.5 111.5,451.5 39.5,451.5C 39.5,368.833 39.5,286.167 39.5,203.5C 183.5,203.5 327.5,203.5 471.5,203.5 Z"/></g>
<g><path style="opacity:1" fill="#a9acad" d="M 471.5,203.5 C 471.833,203.5 472.167,203.5 472.5,203.5C 472.5,286.5 472.5,369.5 472.5,452.5C 463.983,452.826 455.65,452.493 447.5,451.5C 455.5,451.5 463.5,451.5 471.5,451.5C 471.5,368.833 471.5,286.167 471.5,203.5 Z"/></g>
<g><path style="opacity:1" fill="#231f20" d="M 64.5,236.5 C 122.5,236.5 180.5,236.5 238.5,236.5C 238.5,294.5 238.5,352.5 238.5,410.5C 238.5,352.5 238.5,294.5 238.5,236.5C 180.5,236.5 122.5,236.5 64.5,236.5 Z"/></g>
<g><path style="opacity:1" fill="#6f6f70" d="M 63.5,236.5 C 121.998,235.501 180.664,235.168 239.5,235.5C 239.832,294.336 239.499,353.002 238.5,411.5C 238.5,411.167 238.5,410.833 238.5,410.5C 238.5,352.5 238.5,294.5 238.5,236.5C 180.5,236.5 122.5,236.5 64.5,236.5C 64.1667,236.5 63.8333,236.5 63.5,236.5 Z"/></g>
<g><path style="opacity:1" fill="#2a2728" d="M 263.5,235.5 C 290.167,235.5 316.833,235.5 343.5,235.5C 343.5,240.833 343.5,246.167 343.5,251.5C 316.833,251.5 290.167,251.5 263.5,251.5C 263.5,246.167 263.5,240.833 263.5,235.5 Z"/></g>
<g><path style="opacity:1" fill="#fcfcfc" d="M 359.5,235.5 C 364.833,235.5 370.167,235.5 375.5,235.5C 375.5,240.833 375.5,246.167 375.5,251.5C 370.167,251.5 364.833,251.5 359.5,251.5C 359.5,246.167 359.5,240.833 359.5,235.5 Z"/></g>
<g><path style="opacity:1" fill="#f9f9fa" d="M 391.5,235.5 C 397.167,235.5 402.833,235.5 408.5,235.5C 408.5,240.833 408.5,246.167 408.5,251.5C 402.833,251.5 397.167,251.5 391.5,251.5C 391.5,246.167 391.5,240.833 391.5,235.5 Z"/></g>
<g><path style="opacity:1" fill="#6f6f71" d="M 423.5,235.5 C 429.167,235.5 434.833,235.5 440.5,235.5C 440.5,240.833 440.5,246.167 440.5,251.5C 434.833,251.5 429.167,251.5 423.5,251.5C 423.5,246.167 423.5,240.833 423.5,235.5 Z"/></g>
<g><path style="opacity:1" fill="#221f1f" d="M 424.5,236.5 C 429.5,236.5 434.5,236.5 439.5,236.5C 439.5,241.167 439.5,245.833 439.5,250.5C 434.5,250.5 429.5,250.5 424.5,250.5C 424.5,245.833 424.5,241.167 424.5,236.5 Z"/></g>
<g><path style="opacity:1" fill="#308d34" d="M 223.5,251.5 C 175.5,251.5 127.5,251.5 79.5,251.5C 79.5,288.833 79.5,326.167 79.5,363.5C 79.1667,363.5 78.8333,363.5 78.5,363.5C 78.5,325.833 78.5,288.167 78.5,250.5C 127.003,250.168 175.336,250.501 223.5,251.5 Z"/></g>
<g><path style="opacity:1" fill="#36c53f" d="M 223.5,251.5 C 223.5,288.833 223.5,326.167 223.5,363.5C 175.5,363.5 127.5,363.5 79.5,363.5C 79.5,326.167 79.5,288.833 79.5,251.5C 127.5,251.5 175.5,251.5 223.5,251.5 Z"/></g>
<g><path style="opacity:1" fill="#c5eec8" d="M 143.5,268.5 C 127.833,268.5 112.167,268.5 96.5,268.5C 96.5,281.5 96.5,294.5 96.5,307.5C 95.5044,294.344 95.1711,281.01 95.5,267.5C 111.675,267.17 127.675,267.504 143.5,268.5 Z"/></g>
<g><path style="opacity:1" fill="#fcfefc" d="M 143.5,268.5 C 143.5,273.5 143.5,278.5 143.5,283.5C 132.5,283.5 121.5,283.5 110.5,283.5C 110.5,291.5 110.5,299.5 110.5,307.5C 105.833,307.5 101.167,307.5 96.5,307.5C 96.5,294.5 96.5,281.5 96.5,268.5C 112.167,268.5 127.833,268.5 143.5,268.5 Z"/></g>
<g><path style="opacity:1" fill="#717172" d="M 447.5,276.5 C 383.833,276.5 320.167,276.5 256.5,276.5C 256.832,335.336 256.499,394.002 255.5,452.5C 255.5,452.167 255.5,451.833 255.5,451.5C 255.5,392.833 255.5,334.167 255.5,275.5C 319.669,275.168 383.669,275.501 447.5,276.5 Z"/></g>
<g><path style="opacity:1" fill="#2e7b31" d="M 271.5,291.5 C 295.661,290.502 319.994,290.169 344.5,290.5C 344.5,320.167 344.5,349.833 344.5,379.5C 343.502,350.338 343.169,321.005 343.5,291.5C 319.5,291.5 295.5,291.5 271.5,291.5 Z"/></g>
<g><path style="opacity:1" fill="#263a25" d="M 110.5,324.5 C 105.833,324.5 101.167,324.5 96.5,324.5C 96.5,329.5 96.5,334.5 96.5,339.5C 95.5119,334.36 95.1786,329.026 95.5,323.5C 100.695,323.179 105.695,323.513 110.5,324.5 Z"/></g>
<g><path style="opacity:1" fill="#221f1f" d="M 110.5,324.5 C 110.5,329.5 110.5,334.5 110.5,339.5C 105.833,339.5 101.167,339.5 96.5,339.5C 96.5,334.5 96.5,329.5 96.5,324.5C 101.167,324.5 105.833,324.5 110.5,324.5 Z"/></g>
<g><path style="opacity:1" fill="#2e7e32" d="M 223.5,251.5 C 224.498,288.996 224.832,326.663 224.5,364.5C 175.664,364.832 126.997,364.499 78.5,363.5C 78.8333,363.5 79.1667,363.5 79.5,363.5C 127.5,363.5 175.5,363.5 223.5,363.5C 223.5,326.167 223.5,288.833 223.5,251.5 Z"/></g>
<g><path style="opacity:1" fill="#0c803f" d="M 79.5,379.5 C 79.5,384.833 79.5,390.167 79.5,395.5C 127.5,395.5 175.5,395.5 223.5,395.5C 223.5,390.167 223.5,384.833 223.5,379.5C 224.489,384.975 224.822,390.642 224.5,396.5C 175.833,396.5 127.167,396.5 78.5,396.5C 78.1778,390.642 78.5111,384.975 79.5,379.5 Z"/></g>
<g><path style="opacity:1" fill="#00ac4d" d="M 79.5,379.5 C 127.5,379.5 175.5,379.5 223.5,379.5C 223.5,384.833 223.5,390.167 223.5,395.5C 175.5,395.5 127.5,395.5 79.5,395.5C 79.5,390.167 79.5,384.833 79.5,379.5 Z"/></g>
<g><path style="opacity:1" fill="#3c3a3b" d="M 63.5,236.5 C 63.8333,236.5 64.1667,236.5 64.5,236.5C 64.5,294.5 64.5,352.5 64.5,410.5C 122.5,410.5 180.5,410.5 238.5,410.5C 238.5,410.833 238.5,411.167 238.5,411.5C 180.167,411.5 121.833,411.5 63.5,411.5C 63.5,353.167 63.5,294.833 63.5,236.5 Z"/></g>
<g><path style="opacity:1" fill="#989a9c" d="M 472.5,203.5 C 472.167,203.5 471.833,203.5 471.5,203.5C 327.5,203.5 183.5,203.5 39.5,203.5C 39.5,286.167 39.5,368.833 39.5,451.5C 111.5,451.5 183.5,451.5 255.5,451.5C 255.5,451.833 255.5,452.167 255.5,452.5C 183.167,452.5 110.833,452.5 38.5,452.5C 38.5,369.167 38.5,285.833 38.5,202.5C 183.334,202.167 328.001,202.5 472.5,203.5 Z"/></g>
<g><path style="opacity:1" fill="#308e34" d="M 359.5,291.5 C 383.661,290.502 407.994,290.169 432.5,290.5C 432.5,344.5 432.5,398.5 432.5,452.5C 378.5,452.5 324.5,452.5 270.5,452.5C 270.168,398.664 270.501,344.997 271.5,291.5C 271.5,344.833 271.5,398.167 271.5,451.5C 324.833,451.5 378.167,451.5 431.5,451.5C 431.5,398.167 431.5,344.833 431.5,291.5C 407.5,291.5 383.5,291.5 359.5,291.5 Z"/></g>
<g><path style="opacity:1" fill="#36c53e" d="M 271.5,291.5 C 295.5,291.5 319.5,291.5 343.5,291.5C 343.169,321.005 343.502,350.338 344.5,379.5C 349.5,379.5 354.5,379.5 359.5,379.5C 359.5,350.167 359.5,320.833 359.5,291.5C 383.5,291.5 407.5,291.5 431.5,291.5C 431.5,344.833 431.5,398.167 431.5,451.5C 378.167,451.5 324.833,451.5 271.5,451.5C 271.5,398.167 271.5,344.833 271.5,291.5 Z"/></g>
<g><path style="opacity:1" fill="#274c28" d="M 344.5,396.5 C 349.305,395.513 354.305,395.179 359.5,395.5C 359.821,401.026 359.488,406.36 358.5,411.5C 358.5,406.5 358.5,401.5 358.5,396.5C 353.833,396.5 349.167,396.5 344.5,396.5 Z"/></g>
<g><path style="opacity:1" fill="#221f1f" d="M 344.5,396.5 C 349.167,396.5 353.833,396.5 358.5,396.5C 358.5,401.5 358.5,406.5 358.5,411.5C 353.833,411.5 349.167,411.5 344.5,411.5C 344.5,406.5 344.5,401.5 344.5,396.5 Z"/></g>
<g><path style="opacity:1" fill="#b4e9b7" d="M 415.5,332.5 C 410.5,332.5 405.5,332.5 400.5,332.5C 400.5,337.167 400.5,341.833 400.5,346.5C 405.5,346.5 410.5,346.5 415.5,346.5C 410.36,347.488 405.026,347.821 399.5,347.5C 399.5,342.167 399.5,336.833 399.5,331.5C 405.026,331.179 410.36,331.512 415.5,332.5 Z"/></g>
<g><path style="opacity:1" fill="#fefffe" d="M 415.5,332.5 C 415.5,337.167 415.5,341.833 415.5,346.5C 410.5,346.5 405.5,346.5 400.5,346.5C 400.5,341.833 400.5,337.167 400.5,332.5C 405.5,332.5 410.5,332.5 415.5,332.5 Z"/></g>
<g><path style="opacity:1" fill="#2a5e2c" d="M 415.5,308.5 C 410.5,308.5 405.5,308.5 400.5,308.5C 400.5,313.167 400.5,317.833 400.5,322.5C 405.5,322.5 410.5,322.5 415.5,322.5C 410.36,323.488 405.026,323.821 399.5,323.5C 399.5,318.167 399.5,312.833 399.5,307.5C 405.026,307.179 410.36,307.512 415.5,308.5 Z"/></g>
<g><path style="opacity:1" fill="#b4eab6" d="M 391.5,308.5 C 386.5,308.5 381.5,308.5 376.5,308.5C 376.5,313.167 376.5,317.833 376.5,322.5C 381.5,322.5 386.5,322.5 391.5,322.5C 386.36,323.488 381.026,323.821 375.5,323.5C 375.5,318.167 375.5,312.833 375.5,307.5C 381.026,307.179 386.36,307.512 391.5,308.5 Z"/></g>
<g><path style="opacity:1" fill="#221f1f" d="M 415.5,308.5 C 415.5,313.167 415.5,317.833 415.5,322.5C 410.5,322.5 405.5,322.5 400.5,322.5C 400.5,317.833 400.5,313.167 400.5,308.5C 405.5,308.5 410.5,308.5 415.5,308.5 Z"/></g>
<g><path style="opacity:1" fill="#fefffe" d="M 391.5,308.5 C 391.5,313.167 391.5,317.833 391.5,322.5C 386.5,322.5 381.5,322.5 376.5,322.5C 376.5,317.833 376.5,313.167 376.5,308.5C 381.5,308.5 386.5,308.5 391.5,308.5 Z"/></g>
<g><path style="opacity:1" fill="#232120" d="M 288.5,308.5 C 298.833,308.5 309.167,308.5 319.5,308.5C 319.5,313.5 319.5,318.5 319.5,323.5C 314.167,323.5 308.833,323.5 303.5,323.5C 303.5,334.167 303.5,344.833 303.5,355.5C 298.5,355.5 293.5,355.5 288.5,355.5C 288.5,339.833 288.5,324.167 288.5,308.5 Z"/></g>
<g><path style="opacity:1" fill="#747678" d="M 15.5,467.5 C 15.5,472.833 15.5,478.167 15.5,483.5C 175.5,483.5 335.5,483.5 495.5,483.5C 495.5,478.167 495.5,472.833 495.5,467.5C 496.489,472.975 496.822,478.642 496.5,484.5C 335.833,484.5 175.167,484.5 14.5,484.5C 14.1778,478.642 14.5111,472.975 15.5,467.5 Z"/></g>
<g><path style="opacity:1" fill="#7f8284" d="M 15.5,467.5 C 175.5,467.5 335.5,467.5 495.5,467.5C 495.5,472.833 495.5,478.167 495.5,483.5C 335.5,483.5 175.5,483.5 15.5,483.5C 15.5,478.167 15.5,472.833 15.5,467.5 Z"/></g>
</svg>
